<svg xmlns="http://www.w3.org/2000/svg" width="24" height="24"><defs><clipPath id="a"><path fill-opacity="0" d="M0 0h24v24H0z"/></clipPath></defs><g fill-rule="evenodd" clip-path="url(#a)"><path d="M1.25 4c0-.42.33-.75.75-.75h14a.749.749 0 1 1 0 1.5H2c-.42 0-.75-.34-.75-.75M13.25 10.5c0-.42.33-.75.75-.75h8a.749.749 0 1 1 0 1.5h-8c-.42 0-.75-.34-.75-.75"/><path d="M9 3.25c.41 0 .75.33.75.75v17a.749.749 0 1 1-1.5 0V4c0-.42.33-.75.75-.75M18 9.75c.41 0 .75.33.75.75V21a.749.749 0 1 1-1.5 0V10.5c0-.42.33-.75.75-.75"/></g></svg>