<svg xmlns="http://www.w3.org/2000/svg" width="24" height="24"><defs><clipPath id="a"><path fill-opacity="0" d="M0 0h24v24H0z"/></clipPath></defs><g fill-rule="evenodd" clip-path="url(#a)"><path d="M1.25 3.5c0-.42.33-.75.75-.75h20c.41 0 .75.33.75.75v15c0 .41-.34.75-.75.75H10.67l-4.84 2.42a.76.76 0 0 1-.73-.04.74.74 0 0 1-.35-.63v-1.75H2c-.42 0-.75-.34-.75-.75zm1.5.75v13.5H5.5c.41 0 .75.33.75.75v1.28l3.91-1.96c.1-.05.22-.07.34-.07h10.75V4.25z"/><path d="M15.5 7.25c.41 0 .75.33.75.75v.5a.749.749 0 1 1-1.5 0V8c0-.42.33-.75.75-.75m-7 0c.41 0 .75.33.75.75v.5a.749.749 0 1 1-1.5 0V8c0-.42.33-.75.75-.75m.66 4.91a.75.75 0 0 0-1-.34c-.37.19-.52.64-.34 1.01l.68-.33-.68.33h.01v.02l.02.02c.01.03.03.06.05.09.04.07.1.17.18.28.16.23.4.52.73.82.67.59 1.72 1.19 3.19 1.19a4.73 4.73 0 0 0 3.91-2.01c.08-.11.14-.21.18-.28.02-.03.04-.06.05-.09l.02-.02v-.02h.01l-.67-.33.67.33c.18-.37.03-.82-.34-1.01a.75.75 0 0 0-1 .34h-.01c0 .01-.01.02-.02.04-.02.04-.06.1-.11.17-.11.15-.28.36-.51.56-.45.41-1.15.82-2.18.82-1.04 0-1.74-.41-2.19-.82-.23-.2-.4-.41-.51-.56-.05-.07-.09-.13-.11-.17-.01-.02-.02-.03-.02-.04zm5.67-.01"/></g></svg>