<svg xmlns="http://www.w3.org/2000/svg" width="24" height="24"><defs><clipPath id="a"><path fill-opacity="0" d="M0 0h24v24H0z"/></clipPath></defs><g fill-rule="evenodd" clip-path="url(#a)"><path d="M12 2.75c-5.11 0-9.25 4.14-9.25 9.25v9.25H12c5.1 0 9.25-4.15 9.25-9.25 0-5.11-4.15-9.25-9.25-9.25M2 22l-.75-.01V12C1.25 6.06 6.06 1.25 12 1.25c5.93 0 10.75 4.81 10.75 10.75 0 5.93-4.82 10.75-10.75 10.75H2zm0 0v.75c-.42 0-.75-.34-.75-.76z"/><path d="M6.25 9c0-.42.33-.75.75-.75h9a.749.749 0 1 1 0 1.5H7c-.42 0-.75-.34-.75-.75M6.25 13c0-.42.33-.75.75-.75h9a.749.749 0 1 1 0 1.5H7c-.42 0-.75-.34-.75-.75M6.25 17c0-.42.33-.75.75-.75h5a.749.749 0 1 1 0 1.5H7c-.42 0-.75-.34-.75-.75"/></g></svg>