<svg xmlns="http://www.w3.org/2000/svg" width="30" height="30"><path fill="none" d="M0 0h30v30H0z"/><path fill-rule="evenodd" d="M0 15C0 6.716 6.716 0 15 0s15 6.716 15 15-6.716 15-15 15S0 23.284 0 15m19.72-6.609L15 13.111l-4.72-4.72A1.335 1.335 0 1 0 8.39 10.28L13.111 15l-4.72 4.72a1.335 1.335 0 1 0 1.888 1.889L15 16.889l4.72 4.72a1.335 1.335 0 1 0 1.889-1.888L16.889 15l4.72-4.72A1.335 1.335 0 1 0 19.72 8.39" clip-rule="evenodd"/><mask id="a" width="30" height="30" x="0" y="0" mask-type="alpha" maskUnits="userSpaceOnUse"><path fill-opacity=".1" fill-rule="evenodd" d="M0 15C0 6.716 6.716 0 15 0s15 6.716 15 15-6.716 15-15 15S0 23.284 0 15m19.72-6.609L15 13.111l-4.72-4.72A1.335 1.335 0 1 0 8.39 10.28L13.111 15l-4.72 4.72a1.335 1.335 0 1 0 1.888 1.889L15 16.889l4.72 4.72a1.335 1.335 0 1 0 1.889-1.888L16.889 15l4.72-4.72A1.335 1.335 0 1 0 19.72 8.39" clip-rule="evenodd"/></mask><g mask="url(#a)"><path d="M0 0h30v30H0z"/><path d="M0 0h30v30H0z"/></g></svg>