<svg xmlns="http://www.w3.org/2000/svg" width="24" height="24"><defs><clipPath id="a"><path fill-opacity="0" d="M0 0h24v24H0z"/></clipPath></defs><path fill="none" d="M0 0h24v24H0z"/><g clip-path="url(#a)"><path d="M2 22a7.99 7.99 0 0 1 8-8c2.12 0 4.15.84 5.65 2.34A8 8 0 0 1 18 22h-2c0-1.6-.64-3.12-1.76-4.25a6.02 6.02 0 0 0-8.49 0A6.03 6.03 0 0 0 4 22zm8-9c-3.32 0-6-2.69-6-6 0-3.32 2.68-6 6-6 3.31 0 6 2.68 6 6 0 3.31-2.69 6-6 6m0-2a3.999 3.999 0 1 0 0-8 3.999 3.999 0 1 0 0 8m8.28 3.7c1.4.63 2.6 1.66 3.43 2.95.84 1.3 1.29 2.8 1.29 4.35h-2c0-1.16-.34-2.29-.97-3.26a6 6 0 0 0-2.57-2.22zm-.69-11.29a5.5 5.5 0 0 1 2.48 2.02c.6.91.93 1.98.93 3.07 0 1.37-.52 2.69-1.44 3.7A5.47 5.47 0 0 1 16 13.97v-2.01a3.6 3.6 0 0 0 1.96-.97c.53-.53.88-1.21 1-1.95.11-.74-.01-1.5-.36-2.16-.34-.66-.89-1.2-1.56-1.53z"/></g></svg>