<svg xmlns="http://www.w3.org/2000/svg" width="24" height="24"><defs><clipPath id="a"><path fill-opacity="0" d="M0 0h24v24H0z"/></clipPath></defs><path fill="none" d="M0 0h24v24H0z"/><g clip-path="url(#a)"><path d="M2 22a7.99 7.99 0 0 1 8-8c2.12 0 4.15.84 5.65 2.34A8 8 0 0 1 18 22zm8-9c-3.32 0-6-2.69-6-6 0-3.32 2.68-6 6-6 3.31 0 6 2.68 6 6 0 3.31-2.69 6-6 6m7.36 2.23c1.53.39 2.89 1.26 3.9 2.47a7.56 7.56 0 0 1 1.72 4.3H20c0-2.61-1-4.99-2.64-6.77m-2.02-2.28c.83-.75 1.5-1.67 1.96-2.69a7.976 7.976 0 0 0-.32-7.17c1.13.23 2.15.84 2.88 1.74A4.95 4.95 0 0 1 21 8c0 .71-.16 1.41-.45 2.06s-.72 1.23-1.26 1.7-1.17.82-1.85 1.02c-.68.21-1.4.27-2.1.17"/></g></svg>