<svg xmlns="http://www.w3.org/2000/svg" width="24" height="24"><defs><clipPath id="a"><path fill-opacity="0" d="M0 0h24v24H0z"/></clipPath></defs><path fill="none" d="M0 0h24v24H0z"/><g clip-path="url(#a)"><path fill-rule="evenodd" d="M16.5 3C19.53 3 22 5.5 22 9c0 7-7.5 11-10 12.5C9.5 20 2 16 2 9c0-3.5 2.5-6 5.5-6C9.35 3 11 4 12 5c1-1 2.64-2 4.5-2m-3.57 15.6c.88-.56 1.68-1.11 2.42-1.7C18.33 14.53 20 11.94 20 9c0-2.36-1.54-4-3.5-4-1.08 0-2.24.57-3.09 1.41L12 7.82l-1.42-1.41C9.74 5.57 8.57 5 7.5 5 5.56 5 4 6.65 4 9c0 2.94 1.66 5.53 4.64 7.9A29 29 0 0 0 12 19.17c.33-.2.63-.38.93-.57"/></g></svg>