<svg xmlns="http://www.w3.org/2000/svg" width="24" height="24"><defs><clipPath id="a"><path fill-opacity="0" d="M0 0h24v24H0z"/></clipPath></defs><g fill-rule="evenodd" clip-path="url(#a)"><path d="M2.25 3c0-.42.33-.75.75-.75h7c.41 0 .75.33.75.75v7c0 .41-.34.75-.75.75H3c-.42 0-.75-.34-.75-.75zm1.5.75v5.5h5.5v-5.5zM2.25 14c0-.42.33-.75.75-.75h7c.41 0 .75.33.75.75v7c0 .41-.34.75-.75.75H3c-.42 0-.75-.34-.75-.75zm1.5.75v5.5h5.5v-5.5zM13.25 3c0-.42.33-.75.75-.75h7c.41 0 .75.33.75.75v7c0 .41-.34.75-.75.75h-7c-.42 0-.75-.34-.75-.75zm1.5.75v5.5h5.5v-5.5zm-.25 9.5c.41 0 .75.33.75.75v7a.749.749 0 1 1-1.5 0v-7c0-.42.33-.75.75-.75m6 0c.41 0 .75.33.75.75v7a.749.749 0 1 1-1.5 0v-7c0-.42.33-.75.75-.75"/></g></svg>