<svg xmlns="http://www.w3.org/2000/svg" width="24" height="24"><defs><clipPath id="a"><path fill-opacity="0" d="M0 0h24v24H0z"/></clipPath></defs><g fill-rule="evenodd" clip-path="url(#a)"><path d="M10.75 4c0-.42.33-.75.75-.75h10a.749.749 0 1 1 0 1.5h-10c-.42 0-.75-.34-.75-.75M2.46 15.96c.3-.29.77-.29 1.07 0l4 4c.29.3.29.77 0 1.07-.3.29-.77.29-1.07 0l-4-4a.767.767 0 0 1 0-1.07"/><path d="M7 2.75c.41 0 .75.33.75.75v17a.749.749 0 1 1-1.5 0v-17c0-.42.33-.75.75-.75M10.75 9c0-.42.33-.75.75-.75h8a.749.749 0 1 1 0 1.5h-8c-.42 0-.75-.34-.75-.75M10.75 14c0-.42.33-.75.75-.75h6a.749.749 0 1 1 0 1.5h-6c-.42 0-.75-.34-.75-.75M10.75 19c0-.42.33-.75.75-.75h4a.749.749 0 1 1 0 1.5h-4c-.42 0-.75-.34-.75-.75"/></g></svg>