<?xml version="1.0" encoding="UTF-8"?>
<!DOCTYPE svg PUBLIC "-//W3C//DTD SVG 1.1//EN" "http://www.w3.org/Graphics/SVG/1.1/DTD/svg11.dtd">
<svg xmlns="http://www.w3.org/2000/svg" version="1.1" width="988px" height="988px" style="shape-rendering:geometricPrecision; text-rendering:geometricPrecision; image-rendering:optimizeQuality; fill-rule:evenodd; clip-rule:evenodd" xmlns:xlink="http://www.w3.org/1999/xlink">
<g><path style="opacity:1" fill="#359dfe" d="M 66.5,-0.5 C 351.167,-0.5 635.833,-0.5 920.5,-0.5C 956.5,8.16667 978.833,30.5 987.5,66.5C 987.5,351.167 987.5,635.833 987.5,920.5C 978.833,956.5 956.5,978.833 920.5,987.5C 635.833,987.5 351.167,987.5 66.5,987.5C 30.5,978.833 8.16667,956.5 -0.5,920.5C -0.5,635.833 -0.5,351.167 -0.5,66.5C 8.16667,30.5 30.5,8.16667 66.5,-0.5 Z"/></g>
<g><path style="opacity:1" fill="#fefefe" d="M 771.5,347.5 C 771.166,350.491 772.166,352.824 774.5,354.5C 775.537,355.93 776.204,357.597 776.5,359.5C 776.345,362.716 777.345,365.383 779.5,367.5C 779.5,368.167 779.5,368.833 779.5,369.5C 780.462,373.395 781.796,377.061 783.5,380.5C 783.5,380.833 783.5,381.167 783.5,381.5C 783.259,383.898 783.926,385.898 785.5,387.5C 787.084,393.754 788.418,400.087 789.5,406.5C 789.565,409.428 790.232,412.095 791.5,414.5C 792.4,419.332 793.066,424.332 793.5,429.5C 793.527,435.051 794.194,440.384 795.5,445.5C 795.5,457.167 795.5,468.833 795.5,480.5C 794.598,489.046 793.598,497.713 792.5,506.5C 792.5,506.833 792.5,507.167 792.5,507.5C 790.956,512.606 789.956,517.939 789.5,523.5C 788.34,527.681 787.34,532.015 786.5,536.5C 785.566,537.568 785.232,538.901 785.5,540.5C 784.076,542.515 783.41,544.848 783.5,547.5C 783.5,547.833 783.5,548.167 783.5,548.5C 780.599,554.527 778.266,560.861 776.5,567.5C 742.554,650.945 683.554,709.112 599.5,742C 558.477,756.908 516.144,763.241 472.5,761C 441.91,757.177 411.244,753.843 380.5,751C 339.388,747.686 300.055,754.186 262.5,770.5C 260.033,770.755 258.033,771.755 256.5,773.5C 243.665,778.743 231.998,785.743 221.5,794.5C 217.69,796.252 214.357,798.752 211.5,802C 210.668,802.688 210.002,802.521 209.5,801.5C 224.202,769.897 236.035,737.23 245,703.5C 246.27,697.215 247.103,690.882 247.5,684.5C 251.017,668.518 249.517,652.852 243,637.5C 232.81,619.787 223.143,601.787 214,583.5C 211.198,576.926 208.698,570.259 206.5,563.5C 205.204,558.607 203.538,553.94 201.5,549.5C 201.59,546.848 200.924,544.515 199.5,542.5C 199.277,538.838 198.277,535.505 196.5,532.5C 195.444,523.889 193.778,515.555 191.5,507.5C 188.627,482.898 187.96,458.231 189.5,433.5C 189.5,433.167 189.5,432.833 189.5,432.5C 190.525,429.026 191.192,425.36 191.5,421.5C 192.114,417.865 192.448,414.198 192.5,410.5C 193.768,408.095 194.435,405.428 194.5,402.5C 195.581,399.373 196.247,396.04 196.5,392.5C 198.277,389.495 199.277,386.162 199.5,382.5C 201.871,377.059 203.871,371.392 205.5,365.5C 205.4,362.892 206.067,360.558 207.5,358.5C 209.834,356.824 210.834,354.491 210.5,351.5C 242.107,279.06 293.773,226.226 365.5,193C 469.619,150.541 569.285,159.208 664.5,219C 712.447,251.765 748.114,294.599 771.5,347.5 Z"/></g>
<g><path style="opacity:1" fill="#c0deff" d="M 771.5,347.5 C 773.065,349.509 774.065,351.843 774.5,354.5C 772.166,352.824 771.166,350.491 771.5,347.5 Z"/></g>
<g><path style="opacity:1" fill="#badcff" d="M 210.5,351.5 C 210.834,354.491 209.834,356.824 207.5,358.5C 207.935,355.843 208.935,353.509 210.5,351.5 Z"/></g>
<g><path style="opacity:1" fill="#7fbfff" d="M 441.5,358.5 C 432.467,358.284 423.467,358.617 414.5,359.5C 415.263,358.732 416.263,358.232 417.5,358C 425.677,357.177 433.677,357.344 441.5,358.5 Z"/></g>
<g><path style="opacity:1" fill="#379dfe" d="M 441.5,358.5 C 461.877,361.92 478.877,371.253 492.5,386.5C 489.437,391.072 485.77,395.239 481.5,399C 476.62,403.387 471.62,407.553 466.5,411.5C 458.858,405.008 450.525,399.508 441.5,395C 434.833,394.333 428.167,394.333 421.5,395C 409.613,398.946 404.446,407.113 406,419.5C 408.642,425.742 413.142,430.075 419.5,432.5C 431.592,441.39 444.258,449.557 457.5,457C 463.043,461.042 467.709,465.875 471.5,471.5C 483.386,500.905 477.719,526.405 454.5,548C 421.59,568.997 388.257,569.83 354.5,550.5C 345.339,543.846 337.839,535.846 332,526.5C 341.678,518.819 351.344,511.153 361,503.5C 367.578,512.918 376.078,519.918 386.5,524.5C 388.858,526.129 391.524,527.295 394.5,528C 400.681,528.819 406.681,528.653 412.5,527.5C 425.329,525.837 432.662,518.67 434.5,506C 434.7,503.134 434.033,500.634 432.5,498.5C 431.118,495.606 429.118,493.106 426.5,491C 414.477,482.656 402.143,474.823 389.5,467.5C 377.849,459.848 369.516,449.515 364.5,436.5C 364.59,433.848 363.924,431.515 362.5,429.5C 362.5,423.5 362.5,417.5 362.5,411.5C 364.21,407.365 365.543,403.032 366.5,398.5C 375.94,377.39 391.94,364.39 414.5,359.5C 423.467,358.617 432.467,358.284 441.5,358.5 Z"/></g>
<g><path style="opacity:1" fill="#b5d9ff" d="M 776.5,359.5 C 777.871,361.936 778.871,364.603 779.5,367.5C 777.345,365.383 776.345,362.716 776.5,359.5 Z"/></g>
<g><path style="opacity:1" fill="#99cbff" d="M 205.5,365.5 C 203.871,371.392 201.871,377.059 199.5,382.5C 200.342,376.3 202.342,370.633 205.5,365.5 Z"/></g>
<g><path style="opacity:1" fill="#9accff" d="M 779.5,369.5 C 781.99,372.626 783.323,376.292 783.5,380.5C 781.796,377.061 780.462,373.395 779.5,369.5 Z"/></g>
<g><path style="opacity:1" fill="#95caff" d="M 199.5,382.5 C 199.277,386.162 198.277,389.495 196.5,392.5C 196.723,388.838 197.723,385.505 199.5,382.5 Z"/></g>
<g><path style="opacity:1" fill="#add5ff" d="M 783.5,381.5 C 785.074,383.102 785.741,385.102 785.5,387.5C 783.926,385.898 783.259,383.898 783.5,381.5 Z"/></g>
<g><path style="opacity:1" fill="#eff0f2" d="M 492.5,386.5 C 496.622,390.728 500.955,394.728 505.5,398.5C 505.931,399.293 506.265,400.127 506.5,401C 504.328,405.177 500.995,407.844 496.5,409C 491.291,414.041 486.291,419.208 481.5,424.5C 480.277,425.614 478.944,425.781 477.5,425C 466.765,410.309 452.432,404.643 434.5,408C 430.428,409.797 426.595,411.963 423,414.5C 421.409,417.352 420.076,420.352 419,423.5C 418.264,426.592 418.431,429.592 419.5,432.5C 413.142,430.075 408.642,425.742 406,419.5C 404.446,407.113 409.613,398.946 421.5,395C 428.167,394.333 434.833,394.333 441.5,395C 450.525,399.508 458.858,405.008 466.5,411.5C 471.62,407.553 476.62,403.387 481.5,399C 485.77,395.239 489.437,391.072 492.5,386.5 Z"/></g>
<g><path style="opacity:1" fill="#9bccff" d="M 366.5,398.5 C 365.543,403.032 364.21,407.365 362.5,411.5C 362.654,406.711 363.987,402.378 366.5,398.5 Z"/></g>
<g><path style="opacity:1" fill="#7cbeff" d="M 194.5,402.5 C 194.435,405.428 193.768,408.095 192.5,410.5C 192.294,407.505 192.96,404.838 194.5,402.5 Z"/></g>
<g><path style="opacity:1" fill="#6eb8ff" d="M 566.5,409.5 C 552.833,409.5 539.167,409.5 525.5,409.5C 525.737,410.791 525.404,411.791 524.5,412.5C 524.5,411.167 524.5,409.833 524.5,408.5C 538.677,408.171 552.677,408.504 566.5,409.5 Z"/></g>
<g><path style="opacity:1" fill="#72b9ff" d="M 653.5,411.5 C 640.208,409.518 626.541,408.851 612.5,409.5C 612.737,410.791 612.404,411.791 611.5,412.5C 611.5,411.167 611.5,409.833 611.5,408.5C 625.833,408.5 640.167,408.5 654.5,408.5C 654.737,409.791 654.404,410.791 653.5,411.5 Z"/></g>
<g><path style="opacity:1" fill="#379dfe" d="M 566.5,409.5 C 566.037,412.482 565.704,415.482 565.5,418.5C 559.549,444.923 554.215,471.59 549.5,498.5C 548.076,500.515 547.41,502.848 547.5,505.5C 544.426,514.571 546.759,521.904 554.5,527.5C 558.981,528.648 563.648,528.815 568.5,528C 570.32,527.8 571.653,526.966 572.5,525.5C 579.998,521.513 586.498,516.18 592,509.5C 596.163,490.183 599.997,470.85 603.5,451.5C 605.344,447.138 606.344,442.471 606.5,437.5C 607.768,435.095 608.435,432.428 608.5,429.5C 608.5,428.833 608.5,428.167 608.5,427.5C 609.768,425.095 610.435,422.428 610.5,419.5C 610.448,417.097 610.781,414.764 611.5,412.5C 612.404,411.791 612.737,410.791 612.5,409.5C 626.541,408.851 640.208,409.518 653.5,411.5C 652.781,413.764 652.448,416.097 652.5,418.5C 646.011,448.612 640.011,478.946 634.5,509.5C 633.076,511.515 632.41,513.848 632.5,516.5C 632.5,517.5 632.5,518.5 632.5,519.5C 631.076,521.515 630.41,523.848 630.5,526.5C 630.5,526.833 630.5,527.167 630.5,527.5C 629.343,530.273 628.676,533.273 628.5,536.5C 628.5,536.833 628.5,537.167 628.5,537.5C 627.343,540.273 626.676,543.273 626.5,546.5C 626.5,546.833 626.5,547.167 626.5,547.5C 624.946,551.567 624.28,555.9 624.5,560.5C 613.167,560.5 601.833,560.5 590.5,560.5C 590.83,553.8 590.497,547.134 589.5,540.5C 579.105,549.699 567.438,556.866 554.5,562C 543.736,565.447 533.069,565.28 522.5,561.5C 511.953,556.09 506.12,547.423 505,535.5C 504.333,526.833 504.333,518.167 505,509.5C 510.158,484.542 514.992,459.542 519.5,434.5C 521.163,432.562 521.829,430.228 521.5,427.5C 521.882,422.256 522.882,417.256 524.5,412.5C 525.404,411.791 525.737,410.791 525.5,409.5C 539.167,409.5 552.833,409.5 566.5,409.5 Z"/></g>
<g><path style="opacity:1" fill="#a5d2ff" d="M 789.5,406.5 C 791.04,408.838 791.706,411.505 791.5,414.5C 790.232,412.095 789.565,409.428 789.5,406.5 Z"/></g>
<g><path style="opacity:1" fill="#eff1f3" d="M 565.5,418.5 C 565.5,419.5 565.5,420.5 565.5,421.5C 570.5,421.5 575.5,421.5 580.5,421.5C 574.26,457.035 567.26,492.369 559.5,527.5C 557.833,527.5 556.167,527.5 554.5,527.5C 546.759,521.904 544.426,514.571 547.5,505.5C 548.924,503.485 549.59,501.152 549.5,498.5C 554.215,471.59 559.549,444.923 565.5,418.5 Z"/></g>
<g><path style="opacity:1" fill="#f0f1f3" d="M 652.5,418.5 C 652.5,419.5 652.5,420.5 652.5,421.5C 657.5,421.5 662.5,421.5 667.5,421.5C 658.248,472.262 648.414,522.929 638,573.5C 626.588,573.76 615.088,573.76 603.5,573.5C 603.5,569.5 603.5,565.5 603.5,561.5C 599.486,561.334 595.486,561.501 591.5,562C 573.348,578.63 553.014,581.964 530.5,572C 526.825,569.172 524.158,565.672 522.5,561.5C 533.069,565.28 543.736,565.447 554.5,562C 567.438,556.866 579.105,549.699 589.5,540.5C 590.497,547.134 590.83,553.8 590.5,560.5C 601.833,560.5 613.167,560.5 624.5,560.5C 626.054,556.433 626.72,552.1 626.5,547.5C 626.5,547.167 626.5,546.833 626.5,546.5C 627.117,546.389 627.617,546.056 628,545.5C 628.497,542.854 628.664,540.187 628.5,537.5C 628.5,537.167 628.5,536.833 628.5,536.5C 629.117,536.389 629.617,536.056 630,535.5C 630.497,532.854 630.664,530.187 630.5,527.5C 630.5,527.167 630.5,526.833 630.5,526.5C 631.924,524.485 632.59,522.152 632.5,519.5C 632.5,518.5 632.5,517.5 632.5,516.5C 633.924,514.485 634.59,512.152 634.5,509.5C 640.011,478.946 646.011,448.612 652.5,418.5 Z"/></g>
<g><path style="opacity:1" fill="#86c1ff" d="M 191.5,421.5 C 191.192,425.36 190.525,429.026 189.5,432.5C 189.335,429.482 189.502,426.482 190,423.5C 190.278,422.584 190.778,421.918 191.5,421.5 Z"/></g>
<g><path style="opacity:1" fill="#87c3ff" d="M 610.5,419.5 C 610.435,422.428 609.768,425.095 608.5,427.5C 608.294,424.505 608.96,421.838 610.5,419.5 Z"/></g>
<g><path style="opacity:1" fill="#b8dbff" d="M 521.5,427.5 C 521.829,430.228 521.163,432.562 519.5,434.5C 519.41,431.848 520.076,429.515 521.5,427.5 Z"/></g>
<g><path style="opacity:1" fill="#b5daff" d="M 362.5,429.5 C 363.924,431.515 364.59,433.848 364.5,436.5C 363.076,434.485 362.41,432.152 362.5,429.5 Z"/></g>
<g><path style="opacity:1" fill="#8bc5ff" d="M 608.5,429.5 C 608.435,432.428 607.768,435.095 606.5,437.5C 606.294,434.505 606.96,431.838 608.5,429.5 Z"/></g>
<g><path style="opacity:1" fill="#b2d8ff" d="M 606.5,437.5 C 606.344,442.471 605.344,447.138 603.5,451.5C 603.498,446.5 604.498,441.833 606.5,437.5 Z"/></g>
<g><path style="opacity:1" fill="#80c0ff" d="M 793.5,429.5 C 794.957,434.598 795.624,439.931 795.5,445.5C 794.194,440.384 793.527,435.051 793.5,429.5 Z"/></g>
<g><path style="opacity:1" fill="#75b8fa" d="M 189.5,433.5 C 187.96,458.231 188.627,482.898 191.5,507.5C 190.5,502.833 189.5,498.167 188.5,493.5C 188.073,482.339 187.739,471.172 187.5,460C 187.284,450.943 187.951,442.11 189.5,433.5 Z"/></g>
<g><path style="opacity:1" fill="#ecf1f5" d="M 389.5,467.5 C 402.143,474.823 414.477,482.656 426.5,491C 429.118,493.106 431.118,495.606 432.5,498.5C 417.42,490.544 403.253,481.21 390,470.5C 389.517,469.552 389.351,468.552 389.5,467.5 Z"/></g>
<g><path style="opacity:1" fill="#eff0f2" d="M 471.5,471.5 C 482.167,478.138 488.333,487.805 490,500.5C 491.051,511.947 490.384,523.28 488,534.5C 486.941,537.618 485.608,540.618 484,543.5C 476.888,551.946 469.054,559.779 460.5,567C 450.864,570.545 441.198,573.878 431.5,577C 405.817,580.079 382.484,574.079 361.5,559C 358.553,556.564 356.22,553.731 354.5,550.5C 388.257,569.83 421.59,568.997 454.5,548C 477.719,526.405 483.386,500.905 471.5,471.5 Z"/></g>
<g><path style="opacity:1" fill="#6caef1" d="M 795.5,480.5 C 795.5,486.167 795.5,491.833 795.5,497.5C 794.626,500.535 793.626,503.535 792.5,506.5C 793.598,497.713 794.598,489.046 795.5,480.5 Z"/></g>
<g><path style="opacity:1" fill="#afd3f7" d="M 549.5,498.5 C 549.59,501.152 548.924,503.485 547.5,505.5C 547.41,502.848 548.076,500.515 549.5,498.5 Z"/></g>
<g><path style="opacity:1" fill="#80b7f0" d="M 792.5,507.5 C 792.76,513.194 791.76,518.527 789.5,523.5C 789.956,517.939 790.956,512.606 792.5,507.5 Z"/></g>
<g><path style="opacity:1" fill="#9ecbf8" d="M 634.5,509.5 C 634.59,512.152 633.924,514.485 632.5,516.5C 632.41,513.848 633.076,511.515 634.5,509.5 Z"/></g>
<g><path style="opacity:1" fill="#badcff" d="M 386.5,524.5 C 389.647,524.737 392.647,525.57 395.5,527C 401.157,527.499 406.824,527.666 412.5,527.5C 406.681,528.653 400.681,528.819 394.5,528C 391.524,527.295 388.858,526.129 386.5,524.5 Z"/></g>
<g><path style="opacity:1" fill="#9ccaf8" d="M 632.5,519.5 C 632.59,522.152 631.924,524.485 630.5,526.5C 630.41,523.848 631.076,521.515 632.5,519.5 Z"/></g>
<g><path style="opacity:1" fill="#b1d7fd" d="M 572.5,525.5 C 571.653,526.966 570.32,527.8 568.5,528C 563.648,528.815 558.981,528.648 554.5,527.5C 556.167,527.5 557.833,527.5 559.5,527.5C 563.993,527.731 568.326,527.064 572.5,525.5 Z"/></g>
<g><path style="opacity:1" fill="#76b0ee" d="M 789.5,523.5 C 790.035,528.312 789.035,532.645 786.5,536.5C 787.34,532.015 788.34,527.681 789.5,523.5 Z"/></g>
<g><path style="opacity:1" fill="#328fe7" d="M 795.5,497.5 C 793.595,549.508 779.761,598.174 754,643.5C 746.709,653.786 739.709,664.119 733,674.5C 726.232,680.658 719.898,687.325 714,694.5C 680.004,729.253 640.171,755.087 594.5,772C 573.391,778.278 552.058,783.278 530.5,787C 509.183,788.405 487.85,788.739 466.5,788C 439.804,784.867 413.138,781.867 386.5,779C 334.563,773.92 285.896,783.92 240.5,809C 234.265,812.615 228.598,816.948 223.5,822C 218.952,823.442 215.286,826.109 212.5,830C 211.552,830.483 210.552,830.649 209.5,830.5C 214.475,818.513 219.475,806.513 224.5,794.5C 223.767,793.913 222.767,793.913 221.5,794.5C 231.998,785.743 243.665,778.743 256.5,773.5C 258.967,773.245 260.967,772.245 262.5,770.5C 300.055,754.186 339.388,747.686 380.5,751C 411.244,753.843 441.91,757.177 472.5,761C 516.144,763.241 558.477,756.908 599.5,742C 683.554,709.112 742.554,650.945 776.5,567.5C 777.117,567.389 777.617,567.056 778,566.5C 780.149,560.555 781.983,554.555 783.5,548.5C 783.5,548.167 783.5,547.833 783.5,547.5C 784.924,545.485 785.59,543.152 785.5,540.5C 785.232,538.901 785.566,537.568 786.5,536.5C 789.035,532.645 790.035,528.312 789.5,523.5C 791.76,518.527 792.76,513.194 792.5,507.5C 792.5,507.167 792.5,506.833 792.5,506.5C 793.626,503.535 794.626,500.535 795.5,497.5 Z"/></g>
<g><path style="opacity:1" fill="#3791e8" d="M 188.5,493.5 C 189.5,498.167 190.5,502.833 191.5,507.5C 193.778,515.555 195.444,523.889 196.5,532.5C 196.723,536.162 197.723,539.495 199.5,542.5C 199.41,545.152 200.076,547.485 201.5,549.5C 202.009,554.703 203.676,559.37 206.5,563.5C 208.698,570.259 211.198,576.926 214,583.5C 223.143,601.787 232.81,619.787 243,637.5C 249.517,652.852 251.017,668.518 247.5,684.5C 245.922,668.355 239.755,654.355 229,642.5C 210.428,606.783 197.428,569.117 190,529.5C 189.409,517.501 188.909,505.501 188.5,493.5 Z"/></g>
<g><path style="opacity:1" fill="#b0d3f7" d="M 630.5,527.5 C 630.664,530.187 630.497,532.854 630,535.5C 629.617,536.056 629.117,536.389 628.5,536.5C 628.676,533.273 629.343,530.273 630.5,527.5 Z"/></g>
<g><path style="opacity:1" fill="#8abdf1" d="M 196.5,532.5 C 198.277,535.505 199.277,538.838 199.5,542.5C 197.723,539.495 196.723,536.162 196.5,532.5 Z"/></g>
<g><path style="opacity:1" fill="#90c0f1" d="M 785.5,540.5 C 785.59,543.152 784.924,545.485 783.5,547.5C 783.41,544.848 784.076,542.515 785.5,540.5 Z"/></g>
<g><path style="opacity:1" fill="#aed2f7" d="M 628.5,537.5 C 628.664,540.187 628.497,542.854 628,545.5C 627.617,546.056 627.117,546.389 626.5,546.5C 626.676,543.273 627.343,540.273 628.5,537.5 Z"/></g>
<g><path style="opacity:1" fill="#96c4f2" d="M 199.5,542.5 C 200.924,544.515 201.59,546.848 201.5,549.5C 200.076,547.485 199.41,545.152 199.5,542.5 Z"/></g>
<g><path style="opacity:1" fill="#89bcf0" d="M 201.5,549.5 C 203.538,553.94 205.204,558.607 206.5,563.5C 203.676,559.37 202.009,554.703 201.5,549.5 Z"/></g>
<g><path style="opacity:1" fill="#8bbdf1" d="M 783.5,548.5 C 781.983,554.555 780.149,560.555 778,566.5C 777.617,567.056 777.117,567.389 776.5,567.5C 778.266,560.861 780.599,554.527 783.5,548.5 Z"/></g>
<g><path style="opacity:1" fill="#b3d4f7" d="M 626.5,547.5 C 626.72,552.1 626.054,556.433 624.5,560.5C 624.28,555.9 624.946,551.567 626.5,547.5 Z"/></g>
<g><path style="opacity:1" fill="#84b9f0" d="M 262.5,770.5 C 260.967,772.245 258.967,773.245 256.5,773.5C 258.033,771.755 260.033,770.755 262.5,770.5 Z"/></g>
</svg>
